<?xml version="1.0" encoding="UTF-8" standalone="no"?>
<!-- Created with Inkscape (http://www.inkscape.org/) -->

<svg
   width="1080"
   height="1080"
   viewBox="0 0 285.74999 285.75001"
   version="1.1"
   id="svg5"
   inkscape:version="1.1.1 (3bf5ae0d25, 2021-09-20)"
   sodipodi:docname="logo-desing.svg"
   inkscape:export-filename="C:\Users\BRASTER\Desktop\TMN-website\final-logo.png"
   inkscape:export-xdpi="96"
   inkscape:export-ydpi="96"
   xmlns:inkscape="http://www.inkscape.org/namespaces/inkscape"
   xmlns:sodipodi="http://sodipodi.sourceforge.net/DTD/sodipodi-0.dtd"
   xmlns="http://www.w3.org/2000/svg"
   xmlns:svg="http://www.w3.org/2000/svg">
  <sodipodi:namedview
     id="namedview7"
     pagecolor="#ffffff"
     bordercolor="#000000"
     borderopacity="1"
     inkscape:pageshadow="0"
     inkscape:pageopacity="0"
     inkscape:pagecheckerboard="true"
     inkscape:document-units="px"
     showgrid="false"
     units="px"
     showguides="true"
     inkscape:guide-bbox="true"
     inkscape:snap-intersection-paths="true"
     inkscape:zoom="0.32"
     inkscape:cx="431.25"
     inkscape:cy="573.4375"
     inkscape:window-width="1440"
     inkscape:window-height="877"
     inkscape:window-x="-8"
     inkscape:window-y="-8"
     inkscape:window-maximized="1"
     inkscape:current-layer="g16610"
     inkscape:showpageshadow="true"
     showborder="false"
     borderlayer="false" />
  <defs
     id="defs2">
    <inkscape:path-effect
       effect="fill_between_many"
       method="originald"
       linkedpaths="#path7235,0,1|#path6005,0,1"
       id="path-effect8133"
       is_visible="true"
       lpeversion="0"
       join="true"
       close="true"
       autoreverse="true"
       applied="false" />
  </defs>
  <g
     inkscape:label="Layer 1"
     inkscape:groupmode="layer"
     id="layer1">
    <g
       id="g16610"
       transform="matrix(3.8436194,0,0,3.8436194,7391.0723,-1795.8983)"
       inkscape:export-filename="C:\Users\BRASTER\Desktop\TMN-website\design-transparent.png"
       inkscape:export-xdpi="96"
       inkscape:export-ydpi="96">
      <g
         id="g8049"
         transform="translate(712.67697,-127.97618)">
        <g
           id="g12709"
           transform="translate(-1.625e-5,-0.63562036)">
          <path
             id="path3682"
             style="fill:#00222b;fill-opacity:1;stroke-width:3.77953"
             d="m -9855.957,2296.4844 v 25.5742 c 0,0 -35.4625,25.9486 -41.6992,30.4805 l 10.7285,13.3691 11.9277,-8.8535 v 39.8789 c 7.4642,5.8596 15.5118,9.8291 24.916,10.1621 13.7397,-0.2605 22.2524,-6.4329 32.9258,-10.1621 19.7586,-7.3592 29.4297,-8.5209 49.9707,5.2754 v -46.4434 l 13.8105,10.1426 9.627,-13.3691 -76.7578,-56.0547 -24.6094,17.8808 v -17.8808 z m 35.4492,20.1191 40.6836,29.8809 v 15.2344 h -30.0391 v -22.0704 h -16.1582 v 22.0704 h -2.1035 v -22.0704 h -3.0059 v 22.0704 h -29.6308 v -15.2344 z m 25.3906,86.1465 c -6.8289,-0.047 -14.0927,1.5438 -22.041,4.9316 -10.6734,3.7292 -19.1861,9.9021 -32.9258,10.1622 -9.4042,-0.3338 -17.4518,-4.3026 -24.916,-10.1622 v 5.2832 c 7.4642,5.8596 15.5118,9.8292 24.916,10.1622 13.7397,-0.2606 22.2524,-6.433 32.9258,-10.1622 5.8945,-2.18 9.8652,-4.1322 18.6953,-5.8632 9.1605,-0.083 18.9976,1.8629 31.2754,11.1386 v -5.2812 c -8.8976,-6.5729 -17.949,-10.1406 -27.9297,-10.209 z m 0.1797,9.2539 c -6.69,-0.042 -13.611,2.0558 -22.2207,6.0391 -1.3342,0.4661 -2.6349,0.9699 -3.916,1.4961 -1.2811,0.5262 -2.542,1.0753 -3.7988,1.6289 -1.2569,0.5536 -2.5101,1.1118 -3.7715,1.6601 -1.2615,0.5484 -2.5313,1.0872 -3.8262,1.5977 -1.295,0.5104 -2.6134,0.9936 -3.9707,1.4336 -1.3573,0.4399 -2.7546,0.8353 -4.2031,1.1718 -0.7243,0.1684 -1.4605,0.3226 -2.2129,0.459 -1.5049,0.273 -3.0696,0.4788 -4.709,0.5996 -0.8197,0.06 -1.6589,0.099 -2.5176,0.1153 -1.1755,-0.042 -2.3302,-0.1392 -3.4648,-0.291 -1.1347,-0.1519 -2.249,-0.3581 -3.3457,-0.6133 -1.0968,-0.2553 -2.1764,-0.5603 -3.2383,-0.9121 -1.0619,-0.3519 -2.1066,-0.7498 -3.1367,-1.1914 -1.0301,-0.4416 -2.0456,-0.9267 -3.0469,-1.4512 -1.0013,-0.5246 -1.9895,-1.0888 -2.9648,-1.6895 -0.9756,-0.6006 -1.9379,-1.2382 -2.8907,-1.9082 -0.9527,-0.6699 -1.8951,-1.373 -2.8281,-2.1054 v 10.748 10.6621 h 1.3457 v -10.748 c 7.4642,5.8596 15.5138,9.8291 24.918,10.1621 13.7397,-0.2605 22.2524,-6.4329 32.9258,-10.1621 19.3195,-7.1957 29.0006,-8.4574 48.623,4.3867 v -9.7715 0 c -3.5097,-2.6516 -6.8011,-4.6491 -9.9531,-6.2266 -6.3875,-3.4083 -12.0063,-5.0517 -17.7969,-5.0879 z m 1.168,22.5176 c -6.8289,-0.047 -14.0927,1.5438 -22.041,4.9316 h 41.5371 c -6.228,-3.1868 -12.6428,-4.8846 -19.4961,-4.9316 z"
             transform="scale(0.26458333)" />
          <path
             id="path9850"
             style="fill:#002255;fill-opacity:1;stroke-width:1.00031"
             d="m -2591.6247,635.7276 c -1.8068,-0.0124 -3.7287,0.40846 -5.8317,1.30482 -2.824,0.98668 -5.0763,2.61993 -8.7116,2.68875 -2.4882,-0.0883 -4.6175,-1.1384 -6.5924,-2.68875 v 1.62576 c 1.9749,1.55033 4.1042,2.6004 6.5924,2.68872 3.6353,-0.0688 5.8876,-1.70206 8.7116,-2.68872 5.1766,-2.20644 9.2565,-1.53271 13.2214,1.39628 v -1.62573 c -2.3542,-1.73908 -4.749,-2.68303 -7.3897,-2.70113 z" />
          <path
             id="path10051"
             style="fill:#0066ff;fill-opacity:1;stroke-width:3.7807"
             d="m -9794.9375,2412.0039 c -6.69,-0.042 -13.611,2.0558 -22.2207,6.0391 -10.6734,3.7291 -19.1861,9.9016 -32.9258,10.1621 -9.4042,-0.333 -17.4518,-4.3026 -24.916,-10.1621 v 10.748 10.6621 h 1.3457 v -9.6328 c 7.0861,5.2907 14.7284,8.821 23.5703,9.1348 13.7397,-0.2601 23.0376,-4.1908 33.711,-7.9199 19.5651,-8.3393 34.2001,-8.037 49.1855,3.0332 v -10.7481 c -10.9295,-7.6711 -19.1486,-11.2626 -27.75,-11.3164 z"
             transform="scale(0.26458333)" />
          <path
             id="path10830"
             style="fill:#002255;fill-opacity:1;stroke-width:3.77953"
             d="m -9793.8555,2434.5234 c -6.8041,-0.033 -14.0398,1.556 -21.955,4.9297 h 41.248 c -5.601,-2.8665 -11.3533,-4.5271 -17.4395,-4.8672 -0.521,-0.026 -1.0423,-0.05 -1.5683,-0.057 -0.095,0 -0.19,0 -0.2852,-0.01 z"
             transform="scale(0.26458333)" />
        </g>
        <text
           xml:space="preserve"
           style="font-style:normal;font-variant:normal;font-weight:normal;font-stretch:normal;font-size:20.0517px;line-height:1.25;font-family:Voltaire;-inkscape-font-specification:'Voltaire, Normal';font-variant-ligatures:normal;font-variant-caps:normal;font-variant-numeric:normal;font-variant-east-asian:normal;fill:#002255;fill-opacity:1;stroke:none;stroke-width:0.501293"
           x="-1872.1652"
           y="920.16876"
           id="text41753"
           transform="scale(1.3993568,0.71461402)"><tspan
             sodipodi:role="line"
             id="tspan41751"
             style="font-style:normal;font-variant:normal;font-weight:normal;font-stretch:normal;font-size:20.0517px;font-family:Voltaire;-inkscape-font-specification:'Voltaire, Normal';font-variant-ligatures:normal;font-variant-caps:normal;font-variant-numeric:normal;font-variant-east-asian:normal;fill:#002255;fill-opacity:1;stroke-width:0.501293"
             x="-1872.1652"
             y="920.16876"><tspan
   style="fill:#002255;fill-opacity:1"
   id="tspan3901">T</tspan>M<tspan
   style="fill:#002255;fill-opacity:1"
   id="tspan7991">N</tspan></tspan></text>
      </g>
    </g>
    <text
       xml:space="preserve"
       style="font-style:normal;font-variant:normal;font-weight:normal;font-stretch:normal;font-size:16.0813px;line-height:1.25;font-family:monospace;-inkscape-font-specification:monospace;fill:#0055d4;fill-opacity:1;stroke:none;stroke-width:0.402035"
       x="-2175.6758"
       y="789.73212"
       id="text14201"
       transform="scale(1.203706,0.83076766)"><tspan
         sodipodi:role="line"
         id="tspan14199"
         style="font-style:normal;font-variant:normal;font-weight:normal;font-stretch:normal;font-family:monospace;-inkscape-font-specification:monospace;fill:#0055d4;stroke-width:0.402035"
         x="-2175.6758"
         y="789.73212" /></text>
    <text
       xml:space="preserve"
       style="font-style:normal;font-variant:normal;font-weight:normal;font-stretch:normal;font-size:10.5833px;line-height:1.25;font-family:monospace;-inkscape-font-specification:monospace;fill:#000000;fill-opacity:1;stroke:none;stroke-width:0.264583"
       x="-2589.8989"
       y="650.85901"
       id="text28315"><tspan
         sodipodi:role="line"
         id="tspan28313"
         style="font-style:normal;font-variant:normal;font-weight:normal;font-stretch:normal;font-family:monospace;-inkscape-font-specification:monospace;stroke-width:0.264583"
         x="-2589.8989"
         y="650.85901" /></text>
    <text
       xml:space="preserve"
       style="font-style:normal;font-variant:normal;font-weight:normal;font-stretch:normal;font-size:10.5833px;line-height:1.25;font-family:monospace;-inkscape-font-specification:monospace;fill:#000000;fill-opacity:1;stroke:none;stroke-width:0.264583"
       x="-2612.7605"
       y="649.79028"
       id="text38625"><tspan
         sodipodi:role="line"
         id="tspan38623"
         style="font-style:normal;font-variant:normal;font-weight:normal;font-stretch:normal;font-family:monospace;-inkscape-font-specification:monospace;stroke-width:0.264583"
         x="-2612.7605"
         y="649.79028" /></text>
  </g>
</svg>
